# Blender v2.79 (sub 0) OBJ File: ''
# www.blender.org
mtllib simpleCloth.mtl
o Plane
v -1.500000 -2.000000 -0.000000
v 1.500000 -2.000000 -0.000000
v -1.500000 2.000000 0.000000
v 1.500000 2.000000 0.000000
v -1.500000 1.000000 0.000000
v -1.500000 0.000000 0.000000
v -1.500000 -1.000000 -0.000000
v 1.500000 -1.000000 -0.000000
v 1.500000 0.000000 0.000000
v 1.500000 1.000000 0.000000
v -0.500000 -2.000000 -0.000000
v 0.500000 -2.000000 -0.000000
v 0.500000 2.000000 0.000000
v -0.500000 2.000000 0.000000
v 0.500000 -1.000000 -0.000000
v -0.500000 -1.000000 -0.000000
v 0.500000 0.000000 0.000000
v -0.500000 0.000000 0.000000
v 0.500000 1.000000 0.000000
v -0.500000 1.000000 0.000000
vt 0.750000 0.000000
vt 1.000000 0.333333
vt 0.750000 0.333333
vt 0.000000 0.000000
vt 0.250000 0.333333
vt 0.000000 0.333333
vt 0.250000 0.000000
vt 0.500000 0.333333
vt 0.500000 0.000000
vt 0.500000 0.666667
vt 0.750000 1.000000
vt 0.500000 1.000000
vt 0.750000 0.666667
vt 0.250000 0.666667
vt 0.250000 1.000000
vt 0.000000 0.666667
vt 0.000000 1.000000
vt 1.000000 1.000000
vt 1.000000 0.666667
vt 1.000000 0.000000
vn 0.0000 -0.0000 1.0000
usemtl None
s off
f 10/1/1 13/2/1 19/3/1
f 2/4/1 15/5/1 12/6/1
f 8/7/1 17/8/1 15/5/1
f 9/9/1 19/3/1 17/8/1
f 18/10/1 5/11/1 6/12/1
f 17/8/1 20/13/1 18/10/1
f 16/14/1 6/12/1 7/15/1
f 15/5/1 18/10/1 16/14/1
f 11/16/1 7/15/1 1/17/1
f 12/6/1 16/14/1 11/16/1
f 20/13/1 3/18/1 5/11/1
f 19/3/1 14/19/1 20/13/1
f 10/1/1 4/20/1 13/2/1
f 2/4/1 8/7/1 15/5/1
f 8/7/1 9/9/1 17/8/1
f 9/9/1 10/1/1 19/3/1
f 18/10/1 20/13/1 5/11/1
f 17/8/1 19/3/1 20/13/1
f 16/14/1 18/10/1 6/12/1
f 15/5/1 17/8/1 18/10/1
f 11/16/1 16/14/1 7/15/1
f 12/6/1 15/5/1 16/14/1
f 20/13/1 14/19/1 3/18/1
f 19/3/1 13/2/1 14/19/1
